<?xml version="1.0" encoding="UTF-8"?>
<svg xmlns="http://www.w3.org/2000/svg" version="1.1" viewBox="0 0 512 512">
  <defs>
    <style>
      .cls-1, .cls-2 {
        fill: #795548;
      }

      .cls-2, .cls-3 {
        display: none;
      }
    </style>
  </defs>
  <!-- Generator: Adobe Illustrator 28.6.0, SVG Export Plug-In . SVG Version: 1.2.0 Build 709)  -->
  <g>
    <g id="Layer_1">
      <g id="Layer_1-2" data-name="Layer_1">
        <g id="Layer_1-2">
          <g id="Layer_3" class="cls-3">
            <g>
              <path class="cls-1" d="M260.92,435.67c.8.4,1.3.9,1.3,1.6s-.4,1.3-1.2,1.7c-.8.5-1.8.7-3,.7s-1.7,0-2.6-.1c-.9,0-1.7-.1-2.4-.2-.6,0-1.3-.1-1.9-.2,1.9.6,3.3,1.5,4.2,2.5s1.4,2.3,1.4,3.9-.9,3.7-2.9,5.4c-2,1.7-4.7,3-8.1,4-3.4,1-7.1,1.6-11.2,1.6s-8.8-.6-12.5-2-6.7-3.4-9-6.2c-2.3-2.7-3.7-5.9-4.2-9.4-.7-4.8,0-9.5,2.1-13.7s5.5-7.1,10.3-8.8c4.8-1.8,10.5-1.9,17.1-1,3.9.6,7.6,1.5,11,2.9s6.1,2.8,8,4.4c2,1.6,2.9,3,3,4.2,0,.5-.2.9-.6,1.3-.4.4-1,.7-1.6.9-.7.2-1.4.3-2.2.3s-2.1-.3-2.9-.7c-.8-.4-1.4-.9-1.8-1.7-.7-1.3-1.7-2.4-3.1-3.5-1.3-1.1-2.9-1.9-4.6-2.6-1.7-.7-3.6-1.2-5.5-1.4-4.3-.6-8.2,0-11.5,2s-5.6,4.7-7.1,8.3c-1.5,3.6-2,7.2-1.5,10.5.3,2.4,1.1,4.6,2.5,6.4,1.3,1.8,3.1,3.2,5.3,4.1,2.2,1,4.7,1.4,7.7,1.5,2.9,0,5.5-.3,7.8-1s4.1-1.6,5.3-2.8c1.2-1.2,1.8-2.4,1.8-3.8s-.9-2.9-2.4-4-3.8-1.8-6.8-2h-3.1c-1.2,0-2.2-.4-3-.9s-1.2-1.1-1.3-1.8c-.2-1.6,1.3-2.3,4.3-2,.8,0,1.8.2,3.1.3,3.4.4,6.2.6,8.3.7s4,.2,5.5.1h5c1.2,0,2.2.2,3,.6h0v-.1Z"/>
              <path class="cls-1" d="M325.12,409.97c1,.2,1.4.7,1.3,1.5,0,1-.8,1.9-1.8,2.8-1.1.8-2.4,1.5-3.9,1.8-.3,0-1.6.4-3.9.8-4.4.8-8.2,1.4-11.4,2-2.4.4-4.3.7-5.7.9-2.6.4-5.3.7-7.9,1-.8,1.9-1.6,3.7-2.2,5.4-.6,1.7-1.3,3.8-2.1,6.4,2.8-.1,6.7-.4,11.7-1,2.2-.2,4.8-.6,7.7-1.1,2.2-.4,3.7-.6,4.3-.7,1.6-.2,2.8-.2,3.6.2.8.4,1.2.9,1.1,1.7,0,.9-.6,1.7-1.5,2.4-.9.6-2.1,1.1-3.6,1.2-.5,0-1.9.2-4.2.3-3.8.1-7.2.3-10.2.6-3.4.3-6.8.5-10.3.7-2.4,7.7-3.8,12.6-4.4,14.8h6.5c3.6,0,7.8-.2,12.7-.6,3.4-.2,6-.4,7.9-.4s2.7.1,3.4.6c.7.4,1,1.1.9,1.9,0,.9-.6,1.6-1.6,2.1-.9.5-2.2.7-3.8.7h-3.2c-4.1-.1-8.1-.2-12.2-.2s-6.3,0-10.2.1h-5.5c-1.2,0-2.2-.2-2.9-.6-.8-.4-1.1-.9-1.1-1.5s.2-1.1.6-2.2c.4-1.2.6-2,.8-2.4,1.7-4.9,3.1-9.1,4.1-12.7.3-1.2,1.2-4.3,2.7-9.5.7-2.3,1.3-4,1.6-5.2-1.8,0-3.2,0-4.1-.4-.9-.3-1.4-.8-1.4-1.5s.5-1.1,1.4-1.6,2.1-.8,3.5-.9c.8,0,3.3-.2,7.4-.6,6.8-.7,10.7-1.4,12-1.6,2.5-.4,6.7-1.2,12.6-2.7,3.8-1,6.3-1.7,7.7-2.1,1.7-.5,3-.6,3.9-.4h-.3Z"/>
            </g>
          </g>
          <g class="cls-3">
            <path class="cls-1" d="M369.22,450.97c1,.5,1.4,1.1,1.4,2s-.5,1.8-1.5,2.4-2.3.8-4,.8-2.2,0-3.8-.1c-4-.2-8.2-.3-12.5-.3h-18.6c-1.2,0-2.1-.4-2.6-.8-.8-.5-1.3-1.2-1.3-2.1s.3-1.4.9-3.3c.9-2.6,1.6-5.2,2.3-7.5s1.3-5.2,2-8.5c1.4-7.3,2.4-12.5,2.9-15.6s.8-5.2.8-6.4.5-1.8,1.5-2.3,2.4-.8,4.2-.8,2.3.3,3,.8,1.2,1.1,1.2,1.9,0,.7-.2,1.3-.4,1.2-.6,1.9c-.8,2.4-1.6,5-2.3,7.9s-1.6,6.6-2.4,11.1c-1.4,7-2.4,12.8-3,17.5h11.4c3.3,0,6.2-.1,10.1-.3,3-.2,5.3-.3,7.1-.3s3.1.2,4,.7h0Z"/>
            <path class="cls-1" d="M133.62,444.37c0,.6.4,1.8.8,3.5s.6,2.9.8,3.7.2,1.3.2,1.5c0,.8-.4,1.5-1.3,2s-2,.7-3.5.7-2.9-.3-3.8-.8-1.4-1.4-1.4-2.5-.4-5.2-1.3-11.1h-8.3c-2,0-6.4,0-11.1.1h-3.4c-3.4,5.7-5.8,9.8-7,12.2-.7,1.4-2.4,2-5.1,2s-2.5-.3-3.4-.8-1.3-1.3-1.3-2.2,0-.7.4-1,.7-.9,1.3-1.5c1.2-1.3,2-2.3,2.6-3.2l3.6-5.4c-1.2,0-2.3-.3-3.1-.7s-1.2-1-1.2-1.7.4-1.6,1.1-2.1,1.7-.7,2.9-.7h3.7l2.9-4.6,1.5-2.3c2.7-4.3,4.9-7.6,6.5-10s3.4-5,5.5-7.9,5.1-4.3,9.2-4.3,2.8.3,3.8.9,1.6,1.4,1.8,2.4c.8,5.3,2.1,12.4,3.9,21.2,1,4.7,1.9,8.9,2.7,12.5h0v.1ZM123.52,436.67v-.7c-.8-5.6-2-13.4-3.6-23.5-1.6,2.2-3.5,5-5.7,8.4s-4.4,6.9-6.6,10.4c-.6,1-1.5,2.4-2.5,4.1l-.7,1.2h19.1v.1Z"/>
            <path class="cls-1" d="M198.42,409.17c.9.5,1.3,1.1,1.3,1.8s0,.8-.2,1.1-.3.8-.5,1.5c-.5,1.2-.8,2.2-1,2.8-.7,2.3-1.4,5-2.1,8.4s-1.4,6.5-1.9,9.5l-3.2,18.9c0,.8-.5,1.5-1.2,2s-1.8.7-3.5.7-2.7-.2-3.5-.7-1.5-1.1-2.1-2.1c-1.8-3-4.6-7.8-8.1-14.5-3.6-6.7-7.6-14.3-11.9-23-.3,1.5-.8,4.1-1.4,8-.2,1.1-.5,2.6-.8,4.4s-.7,3.9-1.1,6.4c-.8,4.3-1.5,8.2-2,11.7s-.8,5.8-.8,7.1-.5,1.5-1.5,2-2.3.7-4,.7-2.4-.3-3.2-.8-1.2-1.2-1.2-1.9.3-1.4.9-3.2c.8-2.5,1.5-5,2.2-7.5s1.3-5.4,1.9-8.8c1.7-9.2,2.8-15.1,3.2-17.5s.6-4.1.6-4.8.5-1.5,1.6-2,2.4-.8,4.2-.8,2.8.2,3.9.6,1.9.9,2.3,1.5c2.4,4.3,5.4,9.9,9.1,16.6,3.6,6.7,7,13.3,10.2,19.5l.4-2.5c.9-5.3,1.5-8.8,1.8-10.6,1.1-5.9,1.8-10.3,2.2-13.3s.7-5.5.8-7.6v-1.5c0-.8.7-1.5,1.6-2s2.2-.7,3.9-.7,2.2.2,3.1.7h0v-.1Z"/>
            <path class="cls-1" d="M387.92,455.47c-3.5-.7-6.3-1.7-8.5-2.8s-3.2-2.4-3.2-3.6.4-1.5,1.2-2.1,1.7-.9,2.8-.9,1.7.1,2.5.4,1.8.7,2.9,1.4c1.5.8,2.9,1.4,4.1,1.9s2.8.9,4.7,1.3,4.2.5,6.8.5,4.7-.4,6.7-1.2,3.4-1.8,4.5-3.1,1.6-2.6,1.6-4-.5-2.5-1.6-3.6-2.7-2.1-4.8-3-5-2.1-8.8-3.4c-4-1.4-7.2-2.8-9.6-4.1s-4.2-2.7-5.4-4.2-1.7-3-1.7-4.7c0-2.5,1-4.6,2.9-6.5s4.6-3.4,8-4.4,7.2-1.5,11.4-1.5,6.7.4,10.1,1.2,6.3,1.8,8.6,2.9,3.4,2.3,3.4,3.3-.4,1.6-1.2,2.2-1.8.9-3.1.9-1.9-.2-2.8-.5-1.9-.8-3.1-1.5c-1.4-.7-2.6-1.3-3.7-1.8s-2.5-.8-4.1-1.2-3.5-.5-5.6-.5c-3.8,0-6.8.5-9.1,1.6-2.3,1.1-3.4,2.6-3.4,4.6s1.2,3.4,3.5,4.9,6.1,3.1,11.3,4.9c4.1,1.4,7.4,2.7,9.9,4.1s4.3,2.8,5.5,4.3,1.7,3.2,1.7,5.1c0,2.8-1,5.2-2.9,7.4s-4.7,3.8-8.2,5-7.6,1.8-12.1,1.8-7.6-.4-11.1-1.1h-.1Z"/>
          </g>
          <path class="cls-2" d="M93.22,375.17c-3.6-1.7-6.3-4-8.1-6.9-1.8-3-2.7-6.4-2.7-10.3,0-5.8,1.3-11.3,4-16.6,2.7-5.3,6.5-9.5,11.5-12.8s10.6-4.9,17.1-4.9,6.5.7,9.6,2,5.5,3,7.4,5.1c1.9,2,2.8,4.1,2.8,6.1s-.5,1.9-1.4,2.6-2.1,1-3.5,1-1.5-.2-2.2-.5c-.6-.3-1-.8-1.3-1.3-1.4-3.2-3.1-5.6-5.2-7.2s-4.4-2.5-7-2.5c-4.6,0-8.6,1.6-12.1,4.7s-6.2,7-8,11.7-2.8,9.2-2.8,13.6.7,4.5,2,6.6,3,3.7,5.2,5c2.1,1.3,4.4,1.9,6.8,1.9,3.5,0,6.8-.8,9.9-2.3,3-1.5,6-3.8,8.7-6.8,1.2-1.2,2.8-1.8,4.8-1.8s2.2.3,2.8,1c.7.7,1,1.4,1,2.2,0,1.6-1.3,3.4-3.8,5.5s-5.8,3.9-9.9,5.4c-4,1.5-8.1,2.2-12.3,2.2s-9.7-.8-13.3-2.5v-.2h0Z"/>
          <path class="cls-2" d="M154.52,375.37c-3.7-1.6-6.6-3.7-8.7-6.5-2.1-2.7-3.1-5.8-3.1-9.2,0-5.9,1.4-11.6,4.3-17.2,2.8-5.6,6.7-10.1,11.7-13.7,5-3.5,10.5-5.3,16.5-5.3s8.9,1.1,12.6,3.4c3.6,2.3,6.4,5.4,8.3,9.3,2,3.9,2.9,8.3,2.9,13.2s-1.3,10.1-4,14.4c-2.6,4.3-6.4,7.7-11.2,10.1s-10.3,3.7-16.5,3.7-9.1-.8-12.8-2.3h0v.1ZM188.12,338.67c-1.1-3.1-2.7-5.5-4.8-7.3-2.2-1.8-4.9-2.6-8.1-2.6s-8.3,1.6-11.9,4.7-6.4,7.1-8.4,11.9-3,9.4-3,14,.6,4.8,1.7,6.8,2.7,3.5,4.9,4.6c2.2,1.1,4.8,1.7,7.8,1.7,4.6,0,8.7-1.1,12.3-3.3s6.3-5,8.3-8.6c2-3.5,2.9-7.3,2.9-11.2s-.5-7.6-1.6-10.7h-.1Z"/>
          <g id="Layer_4" class="cls-3">
            <g>
              <path class="cls-1" d="M259.82,324.97c1.2.5,1.8,1.1,1.8,2s-.5,1.6-1.5,2.1-2.4.8-4.1.8-2,0-3.4-.1c-2.4-.1-4.7-.2-7.2-.3h-9.4c-3.2,0-6.4,0-9.6.1-.3,1.2-.5,2.2-.6,3.1-.7,4.4-1.2,8.6-1.7,12.6.6,0,1.1,0,1.7-.1,4.4-.3,7.5-.5,9.2-.6,3.5-.3,6.2-.5,8.1-.6,1.9-.2,3.6-.3,5.1-.3s2.7.1,3.9.6c1.1.4,1.7,1,1.7,1.9s-.4,1.6-1.4,2.1c-.9.6-2.2.9-3.6,1h-10.7c-1.3,0-2.9.1-4.8.3-3.3.3-6.5.7-9.7,1.1-.9,9.5-1.3,16.6-1.5,21,0,.9-.5,1.8-1.4,2.5-.9.8-2.1,1.4-3.5,1.9-1.2.4-2.2.4-3,0-.8-.3-1.3-.9-1.4-1.7,0-.3,0-1.1.3-2.4.3-2.1.4-3.3.5-3.7.3-2.8.6-5.8.9-8.9.3-3.2.6-5.7.7-7.5.6-9.5,1.1-16.7,1.4-22h-.4c-1.5,0-2.8-.2-3.7-.7-1-.5-1.5-1.2-1.6-2,0-.8.3-1.5,1.1-2.1.9-.6,2-.8,3.4-.8h3.7c5.3.1,11,.2,16.9.2s8.4,0,13-.1h6.8c1.5,0,2.9.2,4.1.7h0l-.1-.1Z"/>
              <path class="cls-1" d="M319.52,325.37c1.1.5,1.6,1.3,1.5,2.4,0,1-.8,1.9-1.9,2.4-1.1.6-2.5.8-4.3.8s-2-.1-3.4-.3c-2.3-.2-4.7-.4-7.1-.6-2.4-.2-5.5-.3-9.4-.4-3.2,0-6.4-.2-9.6-.2-.5,1.1-.8,2-1,2.9-1.3,4.1-2.4,7.9-3.3,11.4.6,0,1.1,0,1.7.1,4.4.3,7.5.5,9.2.6,3.6.2,6.2.4,8.1.5,1.9,0,3.6.2,5.1.4,1.4.1,2.7.5,3.7,1.2,1.1.6,1.5,1.4,1.4,2.3,0,1-.7,1.7-1.7,2.1-1,.5-2.2.6-3.7.4-1.4-.2-3.2-.5-5.3-.9s-3.9-.6-5.2-.8c-1.3-.2-2.9-.4-4.7-.5-3.3-.3-6.5-.5-9.8-.6-2.1,8.3-3.4,14.3-4.2,18.1,0,.8-.7,1.4-1.7,1.8s-2.2.6-3.7.5c-1.2,0-2.2-.3-3-.8s-1.1-1.1-1.1-1.8.2-.8.6-1.9c.5-1.6.8-2.6.9-2.9.7-2.2,1.3-4.6,2.1-7.1.7-2.6,1.3-4.6,1.6-6.2,1.8-7.9,3.2-14.1,4.1-18.7h-.4c-1.5,0-2.7-.2-3.6-.7-.9-.4-1.4-1-1.3-1.8,0-.7.5-1.3,1.4-1.8s2.1-.7,3.5-.7h3.7c5.3.1,11,.2,16.9.2h19.8c1.5,0,2.8.3,3.9.8l.2-.2h0Z"/>
            </g>
          </g>
          <path class="cls-2" d="M373.32,325.37c1,.6,1.5,1.4,1.5,2.2s-.5,2-1.5,2.6-2.3,1-3.8,1-1.6,0-3.9-.2c-4.4-.3-8.2-.5-11.3-.5h-13.3c-.7,2.4-1.3,4.7-1.8,6.9-.5,2.2-1.1,5-1.7,8.4,2.8,0,6.8.1,11.8.1s4.9,0,7.8-.2c2.2,0,3.7-.1,4.4-.1,1.6,0,2.9.3,3.8.9s1.4,1.4,1.4,2.3-.4,2-1.3,2.6-2.1.9-3.6.9-2,0-4.3-.3c-3.9-.4-7.4-.5-10.6-.5h-10.5c-2,10.3-3.2,16.9-3.6,19.9h7c3.9,0,8.4-.1,13.6-.3,3.6-.1,6.4-.2,8.4-.2s2.9.3,3.8.8c.8.6,1.3,1.3,1.3,2.3s-.5,1.9-1.4,2.5-2.3.9-4,.9-1.6,0-3.5-.1c-4.4-.2-8.9-.3-13.4-.3h-17.1c-1.3,0-2.4-.3-3.2-.9-.8-.6-1.3-1.3-1.3-2.1s.2-1.5.6-3.1.6-2.7.8-3.3c1.7-6.7,2.9-12.5,3.8-17.4.3-1.6,1-5.9,2.3-12.9.6-3.1,1.1-5.4,1.3-7-1.7,0-3.1-.3-4-.9-.9-.5-1.4-1.2-1.4-2.2s.4-1.5,1.3-2.1c.8-.6,2-.9,3.4-.9s3.1,0,7.1.1c6.5.1,10.4.2,11.6.2,2.4,0,6.5,0,12.3-.2,3.7,0,6.2-.1,7.5-.1s3,.3,4,.9l-.3.3h0Z"/>
          <path class="cls-2" d="M430.12,325.37c1,.6,1.5,1.4,1.5,2.2s-.5,2-1.5,2.6-2.3,1-3.8,1-1.6,0-3.9-.2c-4.4-.3-8.2-.5-11.3-.5h-13.3c-.7,2.4-1.3,4.7-1.8,6.9-.5,2.2-1.1,5-1.7,8.4,2.8,0,6.8.1,11.8.1s4.9,0,7.8-.2c2.2,0,3.7-.1,4.4-.1,1.6,0,2.9.3,3.8.9s1.4,1.4,1.4,2.3-.4,2-1.3,2.6-2.1.9-3.6.9-2,0-4.3-.3c-3.9-.4-7.4-.5-10.6-.5h-10.5c-2,10.3-3.2,16.9-3.6,19.9h7c3.9,0,8.4-.1,13.6-.3,3.6-.1,6.4-.2,8.4-.2s2.9.3,3.8.8c.8.6,1.3,1.3,1.3,2.3s-.5,1.9-1.4,2.5-2.3.9-4,.9-1.6,0-3.5-.1c-4.4-.2-8.9-.3-13.4-.3h-17.1c-1.3,0-2.4-.3-3.2-.9-.8-.6-1.3-1.3-1.3-2.1s.2-1.5.6-3.1.6-2.7.8-3.3c1.7-6.7,2.9-12.5,3.8-17.4.3-1.6,1-5.9,2.3-12.9.6-3.1,1.1-5.4,1.3-7-1.7,0-3.1-.3-4-.9-.9-.5-1.4-1.2-1.4-2.2s.4-1.5,1.3-2.1c.8-.6,2-.9,3.4-.9s3.1,0,7.1.1c6.5.1,10.4.2,11.6.2,2.4,0,6.5,0,12.3-.2,3.7,0,6.2-.1,7.5-.1s3,.3,4,.9l-.3.3h0Z"/>
          <g id="Angel">
            <path class="cls-1" d="M396.47,224.56c49.14-15.07,75.13-39.97,78.63-74.92l.55-4.7-1.53,4.04c-9.28,22.82-30.8,38.55-69.67,50.56-40.62,12.67-55.26,20.42-69.56,36.91-4.48,5.13-4.59,4.7-.66-.98,11.14-16.93,30.8-29.81,66.29-43.46,51-19.44,71.97-39.53,73.61-70.55l.33-5.9-1.75,3.49c-10.59,21.4-25.66,30.36-67.27,39.97-56.46,13.1-77.43,26.76-98.83,65.09l-5.79,10.59-.98-3.06c-.87-2.29-2.07-3.93-4.59-5.68-4.15-3.06-4.59-3.71-4.59-6.33s-.55-3.06-.98-4.26c-.66-1.64-.87-2.29,0-2.29s3.06,2.62,3.06,4.04.22.76.87,0c1.53-1.86-.55-6.99-3.93-10.37-1.75-1.86-2.73-3.28-2.18-3.28,1.86,0,6.33,3.28,8.52,6.12s2.18,2.84,1.2.66c-1.2-2.84-3.39-5.35-6.33-7.1-2.07-1.2-2.18-1.42-1.2-3.06,3.71-6.33,4.48-10.81,2.73-17.8-1.86-7.1-4.48-9.17-9.94-7.54-3.28.98-10.81-1.2-12.89-4.04-.98-1.42-.87-1.42,2.95-2.84,3.39-1.2,3.71-1.64,2.95-2.29-.66-.44-2.73-2.29-4.59-4.26-4.15-4.04-4.26-4.04-4.26-.76,0,16.71-12.01,28.61-26.32,26.32-6.33-.98-9.61,0-13.65,2.62-3.93,3.06-4.26,2.4-.87-1.64,4.15-4.7,7.86-6.33,17.15-6.99,11.14-.76,14.85-3.28,18.46-12.01l1.53-3.71-2.62,2.84c-4.26,4.91-7.86,6.33-18.35,7.1-4.91.44-10.59,1.2-12.34,1.86-1.86.66-3.39.98-3.6.98-.87-.98,6.55-5.68,12.89-7.97,4.15-1.42,8.19-3.49,9.06-4.26l1.75-1.64h-5.68c-7.75,0-8.19-.44-5.13-5.46,8.19-13.21,24.35-13.21,41.28,0l4.91,3.93-3.93-4.26c-19-20.97-49.36-15.29-57.88,10.81-6.55,20.2-7.21,24.24-4.91,32,.87,2.84,1.42,6.77,1.42,10.05v5.35l-3.39,1.86c-1.86.98-4.26,3.06-5.35,4.7-.98,1.42-2.07,2.62-2.18,2.4,0,0-1.53-2.62-3.06-5.46-18.46-33.09-43.68-49.36-93.48-60.61-41.83-9.28-58.21-18.24-68.91-37.24-1.2-2.29-2.51-4.7-3.06-5.57-.66-1.2-.87-.76-.55,3.28,2.62,32.43,20.86,50.45,71.2,70.55,41.94,16.71,54.82,25.12,68.69,44.88,4.59,6.55,4.15,6.55-1.53,0-13-14.85-26.76-22.5-62.36-34.07-47.07-15.18-63.34-26.21-74.92-50.67l-2.07-4.04.33,4.26c1.2,14.09,10.81,33.09,22.39,44.23,14.2,13.65,27.19,20.86,53.62,28.94,36.15,11.25,52.53,21.4,65.2,41.06,4.26,6.55,3.71,6.55-1.86-.66-13.65-17.15-28.94-25.34-61.59-33.09-37.35-8.74-53.95-18.13-65.74-36.91-3.06-5.13-3.6-4.48-1.86,2.4,6.33,28.61,30.47,48.82,70.88,59.63,21.4,5.68,29.6,9.39,40.08,17.58,5.68,4.26,15.94,15.29,17.25,18.35.33.76-1.2-.66-3.6-3.06-12.89-14.31-25.01-19.98-54.6-25.55-25.66-4.91-37.89-10.05-50.67-21.62-3.6-3.28-3.6-2.4,0,5.46,8.41,19,28.07,31.67,59.08,38,18.02,3.71,33.09,11.03,41.61,20.64l3.28,3.49-3.06-2.29c-10.16-7.97-20.75-11.69-38.55-13.21-19.88-2.07-28.07-4.26-37.46-10.81l-3.6-2.4.98,2.4c5.68,12.89,19,20.64,47.94,27.52,21.73,5.35,27.52,7.97,38.22,17.58,7.86,7.1,7.54,6.55,8.41,13.87,3.6,29.81,16.93,50.78,30.47,48.38,9.61-1.64,25.88-16.49,35.93-32.87,5.46-8.74,5.35-8.74,9.61-1.64,9.72,16.27,28.72,33.09,39.1,34.73,11.69,1.86,24.35-18.57,27.52-43.9,1.53-11.47,1.53-11.69,6.55-16.16,12.01-10.81,20.42-15.07,37.35-19,30.14-6.77,43.46-13.87,51.22-27.19,1.75-2.95,1.09-3.49-1.86-1.42-8.95,6.33-18.35,9.39-33.85,10.59-20.53,1.86-33.42,6.12-42.26,14.09-2.62,2.29-3.6,2.4-1.86.44,7.32-9.61,22.93-17.58,45.54-22.82,35.49-8.41,54.6-22.5,60.28-44.12l.55-2.07-2.18,2.29c-11.25,11.47-28.28,18.57-54.28,22.82-25.01,4.26-41.06,12.01-53.07,25.66-2.07,2.4-3.71,4.04-3.71,3.49,0-1.42,11.14-13.87,15.94-17.8,11.69-9.17,21.19-13.65,43.03-19.55,42.15-11.47,66.94-33.64,71.2-63.67.55-3.49.33-3.28-2.62,1.64-10.48,17.91-28.28,28.39-63.01,36.37-35.93,8.41-49.47,15.29-64,32.87-6.88,8.19-7.32,8.41-2.07.66,13.21-19.22,28.39-28.72,62.47-39.21l-.55-.44h-.33l-.11.11ZM298.51,248.59c3.06,3.06,5.35,7.1,5.79,11.25.33,2.4-.55,3.71-.98,1.64,0-.44-3.06-3.49-6.55-6.55-4.26-3.93-6.55-7.1-6.88-10.05-.33-2.62-.98-5.13-2.18-6.99-2.07-3.06-.98-3.93,2.62-1.86.87.44,2.4,2.84,3.39,5.35.98,2.51,3.06,5.68,4.59,7.1h.22v.11ZM287.37,225.33c.87.76,2.73,2.4,4.48,3.49,3.6,2.29,5.79,5.46,5.35,7.75-.22.76-.55.66-.98-.44-.87-2.4-2.4-4.04-5.46-5.9-2.62-1.64-4.81-4.04-4.81-5.35s.66,0,1.42.66h0l.22-.22h-.22ZM288.57,189.07c-1.42.76-5.35,0-5.35-.98s.55-.66.98,0c.55,0,2.07.44,3.28.44,1.75,0,1.86,0,.98.76v-.22h.11ZM276.89,178.04c1.86-.66,4.26-1.64,5.35-2.29,1.75-.98,2.95-.98,3.71,0,1.2,1.64,3.39,6.55,3.06,6.99,0,0-1.86,0-3.93-.76s-5.46-1.42-7.75-2.07l-3.93-.98,3.39-.98h0v.22h0l.11-.11ZM258.54,186.99c1.75-1.64,4.15-4.48,5.13-6.33,2.18-4.04,2.07-4.04,4.26-1.64.98.98,4.26,3.49,7.32,5.46,9.94,6.12,11.14,20.86,3.28,40.41-7.86,19.44-22.06,24.68-32.54,11.79-3.6-4.48-6.88-14.74-6.88-22.28s12.45-21.4,19.33-27.52h0l.11.11ZM228.18,202.28c.98-3.06,4.59-6.99,6.33-6.99s.66.44-.55,1.64c-.87.76-1.86,1.64-2.07,1.64-.98,0-3.28,7.1-3.28,10.16s-.33,3.28-.66,3.28c-.98,0-.87-6.77.22-9.83h0v.11ZM219.66,233.52c2.4-1.42,5.13-3.71,5.79-4.91,1.53-2.4,1.2-3.49-.66-2.4-1.75.98-6.12,1.86-6.12.98s1.75-1.2,3.93-1.86c2.95-.98,4.59-2.29,6.88-4.7,3.71-4.48,3.93-4.48,3.93-.76,0,10.05-3.06,13.87-12.12,15.73-4.59.76-5.02,0-1.42-2.07,0,0-.22,0-.22,0ZM216.6,249.02c1.75-.76,6.55-3.49,10.81-6.12,7.75-4.7,9.28-4.91,7.21-.98-1.75,3.06-5.35,5.9-11.79,9.39-6.33,3.28-12.67,7.75-12.67,8.74s-.33.44-.55,0c-2.62-1.86,1.86-8.95,7.21-11.25h-.22v.22h0ZM231.68,284.52c-9.06-10.37-8.08-11.47,2.62-2.62,6.66,5.46,14.42,10.37,14.42,9.39s-1.42-2.62-3.06-5.13c-4.91-7.32-3.93-7.75,4.26-1.2l7.21,5.68-1.86,2.84c-.98,1.64-2.4,4.04-2.95,5.9-.98,3.06-1.2,3.28-11.69,10.59-4.48,3.06-5.13,3.28-5.68,2.07s-2.73-3.93-5.13-6.77c-4.15-4.91-6.55-8.95-3.39-5.9,11.79,12.01,14.2,12.01,3.93,0-3.93-4.48-7.21-8.52-7.21-8.95,0-.98,1.2-1.2,1.42,0,.55,1.42,12.12,11.25,12.89,10.59.55-.44-2.18-3.93-6.33-8.52-7.54-8.52-11.14-14.85-4.81-8.74,3.93,3.93,10.81,9.83,11.25,9.83,1.42,0-.33-2.62-6.01-8.95h.22l-.11-.11ZM154.36,197.81c-9.72-5.68-16.93-8.95-44.23-18.78-23.26-8.41-37.13-16.16-47.61-26.1-2.07-2.07-1.2-2.29,1.42,0,1.42.98,4.81,3.06,7.75,4.26,6.55,3.06,15.29,6.12,37.68,12.67,40.08,11.69,57.33,20.97,72.62,39.42,11.14,13.43,22.61,34.73,21.62,40.19-.33,1.86-.55,6.12-.55,9.83,0,6.33,0,6.55-.98,4.04-12.45-34.51-25.12-51.87-47.61-65.09h0v-.44h-.11ZM192.03,337.81c-5.13,10.37-4.26-19.98.98-36.69,1.2-3.93,8.95-18.78,9.72-18.78s3.93,7.97,4.26,11.47l.55,4.04,1.53-3.93c1.2-2.84,1.53-4.7,1.2-6.99-.22-1.64-.55-4.48-.87-6.12-.66-5.13,1.86-10.59,6.33-14.52,4.48-3.71,4.91-3.71,5.68.76.33,2.29.33,4.26,0,6.33-.66,2.62-.66,5.35,0,17.15,0,1.64.66,3.71,1.2,4.26.55.76.98,2.4.98,3.71,0,2.62,1.86,6.12,6.66,11.25,4.48,4.91,4.48,4.26-1.2,8.74-3.17,2.4-5.79,3.39-7.75,2.84-10.27-3.49-23.15,3.71-29.27,16.49h0l-.22-.22.22.22h0ZM201.86,367.4c-5.79-11.47-1.42-32.87,8.19-38.77,3.39-2.07,8.41-3.49,8.41-2.29s-1.2,1.2-2.73,2.07c-10.48,6.33-16.82,24.46-13,37.35,1.2,4.48.87,5.13-.87,1.42h0v.22h0ZM303.1,366.53c-2.95,10.59-8.52,10.59-20.2,0-21.4-19.44-24.79-32-11.25-42.7,2.84-2.18,6.22-1.97,10.27.66,18.67,12.23,25.66,25.88,21.19,42.04h0ZM314.56,356.59c-.33,4.91-3.28,13.43-4.48,13.43s-.55-.44,0-1.64c4.91-11.03-.98-30.8-12.34-39.97-2.62-2.29-2.95-2.84-1.2-3.28,2.07-.44,5.46.76,8.19,2.84,5.79,4.7,10.59,18.35,9.72,28.61h.11ZM322.64,336.61c-.87,4.48-1.2,4.7-2.95.98-3.71-8.19-16.27-15.51-24.46-14.31-4.91.66-16.05-6.77-13.21-8.74,3.06-2.29,8.74-12.01,8.52-14.52-.22-1.64,0-3.71.87-5.46.66-1.64.98-3.49.87-4.26-.33-.98-.55-.66-.87,1.42s-2.07,4.7-6.88,10.16c-7.54,8.95-8.08,10.81-.66,2.62,2.73-3.06,5.35-5.46,5.46-5.35.98,1.2-1.2,5.13-6.66,11.25-6.33,7.32-8.08,8.52-14.85,11.69-3.71,1.64-4.48,2.4-11.25,12.67-21.08,31.45-34.07,43.25-41.83,38.55-5.46-3.28-6.88-19.22-2.4-27.96,3.06-6.33,23.59-25.55,35.27-33.09,4.91-3.28,5.13-3.49,7.54-8.95,3.28-7.75,5.79-11.79,10.59-16.27,2.18-2.07,4.48-4.7,4.91-5.68.87-2.07.87-1.86.98,1.64,0,3.06-.22,3.93-1.75,4.91-2.73,2.29-1.86,2.84,1.75,1.2,3.39-1.42,5.68-3.28,10.92-8.74,4.26-4.48,6.88-5.9,7.32-4.48.55,1.64-.98,3.93-7.32,10.81-2.73,3.06-5.46,6.33-5.79,7.32-1.42,3.06,2.07,0,8.95-8.19s8.19-8.52,6.55-3.71c-.33,1.2-3.71,5.9-7.32,10.59-6.12,7.97-7.54,9.83-6.12,9.83s3.39-3.49,6.99-7.75c8.41-10.16,9.39-13.21,6.01-18.35l-1.86-2.62-2.62,1.2c-1.42.66-4.81,3.28-7.75,5.68-6.12,5.13-6.01,5.13-6.01,2.07,0-5.68-2.07-6.33-6.12-1.86-1.53,1.64-4.26,4.26-6.12,5.68l-3.28,2.62-1.2-2.07c-5.13-8.41-15.94-12.89-15.94-6.55s-.33,3.49-5.79-1.2c-2.07-1.64-4.81-3.71-6.01-4.26-1.86-1.2-2.07-1.64-2.4-6.12-.22-3.06-.66-5.35-1.42-6.33-1.42-1.86-1.53-3.28-.33-3.28s4.48,3.28,8.95,7.1c11.47,10.16,15.73,12.67,21.4,12.67s9.06-1.86,9.06-3.71.98-2.62,2.18-4.48c1.75-2.4,1.86-3.06.87-2.62-7.21,3.71-9.28,4.04-14.42,2.84-10.92-2.84-8.08-17.36,3.39-17.58,2.18,0,15.07-10.81,18.46-15.51,2.73-3.93,3.6-4.48,3.6-2.4,0,7.1,5.79,15.29,17.8,24.9,25.55,20.64,33.09,41.39,26.86,75.24l-.66.66h.11v.11ZM314.24,253.94c-5.13,12.23-6.12,13.21-6.33,6.99,0-1.64-.55-4.04-.87-5.46-.98-3.28-.87-3.71,6.33-18.13,19.66-38.99,36.69-51.65,91.08-67.49,22.82-6.77,36.69-11.79,43.14-15.94,4.91-3.06,4.59-3.06,4.59-2.4s-2.73,2.62-6.12,5.68c-10.27,8.74-22.39,15.07-41.61,21.84-26.32,9.17-37.46,14.09-47.72,20.42-19.22,12.01-31.01,27.19-42.59,54.71h.22v-.22h-.11Z"/>
          </g>
          <g id="Layer_3-2" class="cls-3">
            <g>
              <path class="cls-1" d="M242.72,403.57c-2-1.9-3-4.5-3-8s1-6.9,3-10.1c-.6.6-1.2.7-1.8.7-1,0-1.4-.7-1.4-2.1s0-1.7.6-2.2c.4-.6.8-1.1,1.4-1.7,1.2-1.1,2.8-1.9,4.7-2.6s4.1-1.1,6.5-1.1c4.1,0,7.3,1.1,9.5,3.4,2.2,2.2,3.2,5.4,3.2,9.5s-.6,6-2,8.6c-1.2,2.6-3.2,4.5-5.3,6s-4.9,2.2-7.9,2.2-5.9-.9-7.9-2.8h.4v.2ZM256.92,400.17c1.6-.7,2.8-1.9,3.7-3.4s1.4-3.6,1.4-5.8-.4-3.9-1.4-5.2c-.8-1.3-2-2.4-3.3-3s-3-.9-4.5-.9-3.7.4-5.7,1.3c-1,1.5-1.8,3-2.4,4.7s-1,3.4-1,5.2c0,2.8.8,4.9,2.4,6.2,1.6,1.5,3.5,2.1,5.9,2.1s3.3-.4,4.7-1.1h.2v-.1Z"/>
              <path class="cls-1" d="M270.52,405.47c-.4-.4-.8-1.3-.8-2.4s.2-3,.8-6.2c.6-3.4.8-6.4.8-9.2s0-3.7-.4-5h-1.2v-.6c0-.6,0-1.3.2-1.9s.4-1.1.6-1.5c.6-.7,1.4-1.1,2.4-1.3,1.4,0,3-.2,5.1-.4h10.2c.4,0,.8,0,1,.4,0,.2.2.6.2.9,0,.7-.4,1.7-1,2.4-.4.6-.8.7-1.2.9s-1,.2-1.6.2c-1.2,0-3-.2-5.3-.2h-4.5c0,1.7-.4,4.1-.8,7.5,3-.2,6.3-.4,10-.4s1,0,1.2.2c.2,0,.4.4.4.9s-.4,1.7-1,2.4c-.6.9-1.2,1.3-2,1.3h-9.5c0,1.5-.2,2.8-.2,3.7s0,2.1.4,2.8.6,1.5,1.2,1.9c.4.4.6.7.6,1.3s-.4,1.3-1.2,1.9-1.8.7-3,.7-1.4-.2-1.8-.6h.2l.2.3h0Z"/>
            </g>
          </g>
        </g>
      </g>
    </g>
  </g>
</svg>