<?xml version="1.0" encoding="UTF-8"?>
<svg xmlns="http://www.w3.org/2000/svg" version="1.1" viewBox="0 0 400 400">
  <defs>
    <style>
      .cls-1 {
        fill: #795548;
      }
    </style>
  </defs>
  <!-- Generator: Adobe Illustrator 28.6.0, SVG Export Plug-In . SVG Version: 1.2.0 Build 709)  -->
  <g>
    <g id="Layer_1">
      <g id="Layer_1-2" data-name="Layer_1">
        <g id="Layer_3">
          <g>
            <path class="cls-1" d="M205.1,379.1c.8.4,1.3.9,1.3,1.6s-.4,1.3-1.2,1.7c-.8.5-1.8.7-3,.7s-1.7,0-2.6-.1c-.9,0-1.7-.1-2.4-.2-.6,0-1.3-.1-1.9-.2,1.9.6,3.3,1.5,4.2,2.5s1.4,2.3,1.4,3.9-.9,3.7-2.9,5.4c-2,1.7-4.7,3-8.1,4-3.4,1-7.1,1.6-11.2,1.6s-8.8-.6-12.5-2-6.7-3.4-9-6.2c-2.3-2.7-3.7-5.9-4.2-9.4-.7-4.8,0-9.5,2.1-13.7s5.5-7.1,10.3-8.8c4.8-1.8,10.5-1.9,17.1-1,3.9.6,7.6,1.5,11,2.9s6.1,2.8,8,4.4c2,1.6,2.9,3,3,4.2,0,.5-.2.9-.6,1.3-.4.4-1,.7-1.6.9-.7.2-1.4.3-2.2.3s-2.1-.3-2.9-.7c-.8-.4-1.4-.9-1.8-1.7-.7-1.3-1.7-2.4-3.1-3.5-1.3-1.1-2.9-1.9-4.6-2.6-1.7-.7-3.6-1.2-5.5-1.4-4.3-.6-8.2,0-11.5,2s-5.6,4.7-7.1,8.3c-1.5,3.6-2,7.2-1.5,10.5.3,2.4,1.1,4.6,2.5,6.4,1.3,1.8,3.1,3.2,5.3,4.1,2.2,1,4.7,1.4,7.7,1.5,2.9,0,5.5-.3,7.8-1s4.1-1.6,5.3-2.8c1.2-1.2,1.8-2.4,1.8-3.8s-.9-2.9-2.4-4-3.8-1.8-6.8-2h-3.1c-1.2,0-2.2-.4-3-.9s-1.2-1.1-1.3-1.8c-.2-1.6,1.3-2.3,4.3-2,.8,0,1.8.2,3.1.3,3.4.4,6.2.6,8.3.7s4,.2,5.5.1h5c1.2,0,2.2.2,3,.6h0Z"/>
            <path class="cls-1" d="M269.3,353.4c1,.2,1.4.7,1.3,1.5,0,1-.8,1.9-1.8,2.8-1.1.8-2.4,1.5-3.9,1.8-.3,0-1.6.4-3.9.8-4.4.8-8.2,1.4-11.4,2-2.4.4-4.3.7-5.7.9-2.6.4-5.3.7-7.9,1-.8,1.9-1.6,3.7-2.2,5.4-.6,1.7-1.3,3.8-2.1,6.4,2.8-.1,6.7-.4,11.7-1,2.2-.2,4.8-.6,7.7-1.1,2.2-.4,3.7-.6,4.3-.7,1.6-.2,2.8-.2,3.6.2.8.4,1.2.9,1.1,1.7,0,.9-.6,1.7-1.5,2.4-.9.6-2.1,1.1-3.6,1.2-.5,0-1.9.2-4.2.3-3.8.1-7.2.3-10.2.6-3.4.3-6.8.5-10.3.7-2.4,7.7-3.8,12.6-4.4,14.8h6.5c3.6,0,7.8-.2,12.7-.6,3.4-.2,6-.4,7.9-.4s2.7.1,3.4.6c.7.4,1,1.1.9,1.9,0,.9-.6,1.6-1.6,2.1-.9.5-2.2.7-3.8.7h-3.2c-4.1-.1-8.1-.2-12.2-.2s-6.3,0-10.2.1h-5.5c-1.2,0-2.2-.2-2.9-.6-.8-.4-1.1-.9-1.1-1.5s.2-1.1.6-2.2c.4-1.2.6-2,.8-2.4,1.7-4.9,3.1-9.1,4.1-12.7.3-1.2,1.2-4.3,2.7-9.5.7-2.3,1.3-4,1.6-5.2-1.8,0-3.2,0-4.1-.4-.9-.3-1.4-.8-1.4-1.5s.5-1.1,1.4-1.6,2.1-.8,3.5-.9c.8,0,3.3-.2,7.4-.6,6.8-.7,10.7-1.4,12-1.6,2.5-.4,6.7-1.2,12.6-2.7,3.8-1,6.3-1.7,7.7-2.1,1.7-.5,3-.6,3.9-.4h-.3Z"/>
          </g>
        </g>
        <g>
          <path class="cls-1" d="M313.4,394.4c1,.5,1.4,1.1,1.4,2s-.5,1.8-1.5,2.4-2.3.8-4,.8-2.2,0-3.8-.1c-4-.2-8.2-.3-12.5-.3h-18.6c-1.2,0-2.1-.4-2.6-.8-.8-.5-1.3-1.2-1.3-2.1s.3-1.4.9-3.3c.9-2.6,1.6-5.2,2.3-7.5s1.3-5.2,2-8.5c1.4-7.3,2.4-12.5,2.9-15.6.5-3.1.8-5.2.8-6.4s.5-1.8,1.5-2.3,2.4-.8,4.2-.8,2.3.3,3,.8,1.2,1.1,1.2,1.9,0,.7-.2,1.3-.4,1.2-.6,1.9c-.8,2.4-1.6,5-2.3,7.9s-1.6,6.6-2.4,11.1c-1.4,7-2.4,12.8-3,17.5h11.4c3.3,0,6.2-.1,10.1-.3,3-.2,5.3-.3,7.1-.3s3.1.2,4,.7h0Z"/>
          <path class="cls-1" d="M77.8,387.8c0,.6.4,1.8.8,3.5s.6,2.9.8,3.7.2,1.3.2,1.5c0,.8-.4,1.5-1.3,2s-2,.7-3.5.7-2.9-.3-3.8-.8-1.4-1.4-1.4-2.5-.4-5.2-1.3-11.1h-8.3c-2,0-6.4,0-11.1.1h-3.4c-3.4,5.7-5.8,9.8-7,12.2-.7,1.4-2.4,2-5.1,2s-2.5-.3-3.4-.8-1.3-1.3-1.3-2.2,0-.7.4-1,.7-.9,1.3-1.5c1.2-1.3,2-2.3,2.6-3.2l3.6-5.4c-1.2,0-2.3-.3-3.1-.7s-1.2-1-1.2-1.7.4-1.6,1.1-2.1,1.7-.7,2.9-.7h3.7l2.9-4.6,1.5-2.3c2.7-4.3,4.9-7.6,6.5-10s3.4-5,5.5-7.9,5.1-4.3,9.2-4.3,2.8.3,3.8.9,1.6,1.4,1.8,2.4c.8,5.3,2.1,12.4,3.9,21.2,1,4.7,1.9,8.9,2.7,12.5h0ZM67.7,380.1v-.7c-.8-5.6-2-13.4-3.6-23.5-1.6,2.2-3.5,5-5.7,8.4s-4.4,6.9-6.6,10.4c-.6,1-1.5,2.4-2.5,4.1l-.7,1.2h19.1Z"/>
          <path class="cls-1" d="M142.6,352.6c.9.5,1.3,1.1,1.3,1.8s0,.8-.2,1.1-.3.8-.5,1.5c-.5,1.2-.8,2.2-1,2.8-.7,2.3-1.4,5-2.1,8.4s-1.4,6.5-1.9,9.5l-3.2,18.9c0,.8-.5,1.5-1.2,2s-1.8.7-3.5.7-2.7-.2-3.5-.7-1.5-1.1-2.1-2.1c-1.8-3-4.6-7.8-8.1-14.5-3.6-6.7-7.6-14.3-11.9-23-.3,1.5-.8,4.1-1.4,8-.2,1.1-.5,2.6-.8,4.4s-.7,3.9-1.1,6.4c-.8,4.3-1.5,8.2-2,11.7s-.8,5.8-.8,7.1-.5,1.5-1.5,2-2.3.7-4,.7-2.4-.3-3.2-.8-1.2-1.2-1.2-1.9.3-1.4.9-3.2c.8-2.5,1.5-5,2.2-7.5s1.3-5.4,1.9-8.8c1.7-9.2,2.8-15.1,3.2-17.5s.6-4.1.6-4.8.5-1.5,1.6-2,2.4-.8,4.2-.8,2.8.2,3.9.6,1.9.9,2.3,1.5c2.4,4.3,5.4,9.9,9.1,16.6,3.6,6.7,7,13.3,10.2,19.5l.4-2.5c.9-5.3,1.5-8.8,1.8-10.6,1.1-5.9,1.8-10.3,2.2-13.3s.7-5.5.8-7.6c0-.9,0-1.4,0-1.5,0-.8.7-1.5,1.6-2s2.2-.7,3.9-.7,2.2.2,3.1.7h0Z"/>
          <path class="cls-1" d="M332.1,398.9c-3.5-.7-6.3-1.7-8.5-2.8s-3.2-2.4-3.2-3.6.4-1.5,1.2-2.1,1.7-.9,2.8-.9,1.7.1,2.5.4,1.8.7,2.9,1.4c1.5.8,2.9,1.4,4.1,1.9s2.8.9,4.7,1.3,4.2.5,6.8.5,4.7-.4,6.7-1.2,3.4-1.8,4.5-3.1,1.6-2.6,1.6-4-.5-2.5-1.6-3.6-2.7-2.1-4.8-3-5-2.1-8.8-3.4c-4-1.4-7.2-2.8-9.6-4.1s-4.2-2.7-5.4-4.2-1.7-3-1.7-4.7c0-2.5,1-4.6,2.9-6.5s4.6-3.4,8-4.4,7.2-1.5,11.4-1.5,6.7.4,10.1,1.2,6.3,1.8,8.6,2.9,3.4,2.3,3.4,3.3-.4,1.6-1.2,2.2-1.8.9-3.1.9-1.9-.2-2.8-.5-1.9-.8-3.1-1.5c-1.4-.7-2.6-1.3-3.7-1.8s-2.5-.8-4.1-1.2-3.5-.5-5.6-.5c-3.8,0-6.8.5-9.1,1.6-2.3,1.1-3.4,2.6-3.4,4.6s1.2,3.4,3.5,4.9,6.1,3.1,11.3,4.9c4.1,1.4,7.4,2.7,9.9,4.1s4.3,2.8,5.5,4.3,1.7,3.2,1.7,5.1c0,2.8-1,5.2-2.9,7.4s-4.7,3.8-8.2,5-7.6,1.8-12.1,1.8-7.6-.4-11.1-1.1h0Z"/>
        </g>
        <path class="cls-1" d="M37.4,318.6c-3.6-1.7-6.3-4-8.1-6.9-1.8-3-2.7-6.4-2.7-10.3,0-5.8,1.3-11.3,4-16.6,2.7-5.3,6.5-9.5,11.5-12.8s10.6-4.9,17.1-4.9,6.5.7,9.6,2,5.5,3,7.4,5.1c1.9,2,2.8,4.1,2.8,6.1s-.5,1.9-1.4,2.6-2.1,1-3.5,1-1.5-.2-2.2-.5c-.6-.3-1-.8-1.3-1.3-1.4-3.2-3.1-5.6-5.2-7.2s-4.4-2.5-7-2.5c-4.6,0-8.6,1.6-12.1,4.7s-6.2,7-8,11.7-2.8,9.2-2.8,13.6.7,4.5,2,6.6,3,3.7,5.2,5c2.1,1.3,4.4,1.9,6.8,1.9,3.5,0,6.8-.8,9.9-2.3,3-1.5,6-3.8,8.7-6.8,1.2-1.2,2.8-1.8,4.8-1.8s2.2.3,2.8,1c.7.7,1,1.4,1,2.2,0,1.6-1.3,3.4-3.8,5.5s-5.8,3.9-9.9,5.4c-4,1.5-8.1,2.2-12.3,2.2s-9.7-.8-13.3-2.5v-.2Z"/>
        <path class="cls-1" d="M98.7,318.8c-3.7-1.6-6.6-3.7-8.7-6.5-2.1-2.7-3.1-5.8-3.1-9.2,0-5.9,1.4-11.6,4.3-17.2,2.8-5.6,6.7-10.1,11.7-13.7,5-3.5,10.5-5.3,16.5-5.3s8.9,1.1,12.6,3.4c3.6,2.3,6.4,5.4,8.3,9.3,2,3.9,2.9,8.3,2.9,13.2s-1.3,10.1-4,14.4c-2.6,4.3-6.4,7.7-11.2,10.1s-10.3,3.7-16.5,3.7-9.1-.8-12.8-2.3h0ZM132.3,282.1c-1.1-3.1-2.7-5.5-4.8-7.3-2.2-1.8-4.9-2.6-8.1-2.6s-8.3,1.6-11.9,4.7-6.4,7.1-8.4,11.9-3,9.4-3,14,.6,4.8,1.7,6.8,2.7,3.5,4.9,4.6c2.2,1.1,4.8,1.7,7.8,1.7,4.6,0,8.7-1.1,12.3-3.3s6.3-5,8.3-8.6c2-3.5,2.9-7.3,2.9-11.2s-.5-7.6-1.6-10.7h0Z"/>
        <g id="Layer_4">
          <g>
            <path class="cls-1" d="M204,268.4c1.2.5,1.8,1.1,1.8,2s-.5,1.6-1.5,2.1-2.4.8-4.1.8-2,0-3.4-.1c-2.4-.1-4.7-.2-7.2-.3h-9.4c-3.2,0-6.4,0-9.6.1-.3,1.2-.5,2.2-.6,3.1-.7,4.4-1.2,8.6-1.7,12.6.6,0,1.1,0,1.7-.1,4.4-.3,7.5-.5,9.2-.6,3.5-.3,6.2-.5,8.1-.6,1.9-.2,3.6-.3,5.1-.3s2.7.1,3.9.6c1.1.4,1.7,1,1.7,1.9s-.4,1.6-1.4,2.1c-.9.6-2.2.9-3.6,1h-10.7c-1.3,0-2.9.1-4.8.3-3.3.3-6.5.7-9.7,1.1-.9,9.5-1.3,16.6-1.5,21,0,.9-.5,1.8-1.4,2.5-.9.8-2.1,1.4-3.5,1.9-1.2.4-2.2.4-3,0-.8-.3-1.3-.9-1.4-1.7,0-.3,0-1.1.3-2.4.3-2.1.4-3.3.5-3.7.3-2.8.6-5.8.9-8.9.3-3.2.6-5.7.7-7.5.6-9.5,1.1-16.7,1.4-22h-.4c-1.5,0-2.8-.2-3.7-.7-1-.5-1.5-1.2-1.6-2,0-.8.3-1.5,1.1-2.1.9-.6,2-.8,3.4-.8h3.7c5.3.1,11,.2,16.9.2s8.4,0,13-.1h6.8c1.5,0,2.9.2,4.1.7h0Z"/>
            <path class="cls-1" d="M263.7,268.8c1.1.5,1.6,1.3,1.5,2.4,0,1-.8,1.9-1.9,2.4-1.1.6-2.5.8-4.3.8s-2-.1-3.4-.3c-2.3-.2-4.7-.4-7.1-.6-2.4-.2-5.5-.3-9.4-.4-3.2,0-6.4-.2-9.6-.2-.5,1.1-.8,2-1,2.9-1.3,4.1-2.4,7.9-3.3,11.4.6,0,1.1,0,1.7.1,4.4.3,7.5.5,9.2.6,3.6.2,6.2.4,8.1.5,1.9,0,3.6.2,5.1.4,1.4.1,2.7.5,3.7,1.2,1.1.6,1.5,1.4,1.4,2.3,0,1-.7,1.7-1.7,2.1-1,.5-2.2.6-3.7.4-1.4-.2-3.2-.5-5.3-.9s-3.9-.6-5.2-.8c-1.3-.2-2.9-.4-4.7-.5-3.3-.3-6.5-.5-9.8-.6-2.1,8.3-3.4,14.3-4.2,18.1,0,.8-.7,1.4-1.7,1.8s-2.2.6-3.7.5c-1.2,0-2.2-.3-3-.8s-1.1-1.1-1.1-1.8.2-.8.6-1.9c.5-1.6.8-2.6.9-2.9.7-2.2,1.3-4.6,2.1-7.1.7-2.6,1.3-4.6,1.6-6.2,1.8-7.9,3.2-14.1,4.1-18.7h-.4c-1.5,0-2.7-.2-3.6-.7-.9-.4-1.4-1-1.3-1.8,0-.7.5-1.3,1.4-1.8s2.1-.7,3.5-.7h3.7c5.3.1,11,.2,16.9.2h19.8c1.5,0,2.8.3,3.9.8l.2-.2Z"/>
          </g>
        </g>
        <path class="cls-1" d="M317.5,268.8c1,.6,1.5,1.4,1.5,2.2s-.5,2-1.5,2.6-2.3,1-3.8,1-1.6,0-3.9-.2c-4.4-.3-8.2-.5-11.3-.5h-13.3c-.7,2.4-1.3,4.7-1.8,6.9-.5,2.2-1.1,5-1.7,8.4,2.8,0,6.8.1,11.8.1s4.9,0,7.8-.2c2.2,0,3.7-.1,4.4-.1,1.6,0,2.9.3,3.8.9s1.4,1.4,1.4,2.3-.4,2-1.3,2.6-2.1.9-3.6.9-2,0-4.3-.3c-3.9-.4-7.4-.5-10.6-.5h-10.5c-2,10.3-3.2,16.9-3.6,19.9h7c3.9,0,8.4-.1,13.6-.3,3.6-.1,6.4-.2,8.4-.2s2.9.3,3.8.8c.8.6,1.3,1.3,1.3,2.3s-.5,1.9-1.4,2.5-2.3.9-4,.9-1.6,0-3.5-.1c-4.4-.2-8.9-.3-13.4-.3h-17.1c-1.3,0-2.4-.3-3.2-.9-.8-.6-1.3-1.3-1.3-2.1s.2-1.5.6-3.1.6-2.7.8-3.3c1.7-6.7,2.9-12.5,3.8-17.4.3-1.6,1-5.9,2.3-12.9.6-3.1,1.1-5.4,1.3-7-1.7,0-3.1-.3-4-.9-.9-.5-1.4-1.2-1.4-2.2s.4-1.5,1.3-2.1c.8-.6,2-.9,3.4-.9s3.1,0,7.1.1c6.5.1,10.4.2,11.6.2,2.4,0,6.5,0,12.3-.2,3.7,0,6.2-.1,7.5-.1s3,.3,4,.9l-.3.3Z"/>
        <path class="cls-1" d="M374.3,268.8c1,.6,1.5,1.4,1.5,2.2s-.5,2-1.5,2.6-2.3,1-3.8,1-1.6,0-3.9-.2c-4.4-.3-8.2-.5-11.3-.5h-13.3c-.7,2.4-1.3,4.7-1.8,6.9-.5,2.2-1.1,5-1.7,8.4,2.8,0,6.8.1,11.8.1s4.9,0,7.8-.2c2.2,0,3.7-.1,4.4-.1,1.6,0,2.9.3,3.8.9s1.4,1.4,1.4,2.3-.4,2-1.3,2.6-2.1.9-3.6.9-2,0-4.3-.3c-3.9-.4-7.4-.5-10.6-.5h-10.5c-2,10.3-3.2,16.9-3.6,19.9h7c3.9,0,8.4-.1,13.6-.3,3.6-.1,6.4-.2,8.4-.2s2.9.3,3.8.8c.8.6,1.3,1.3,1.3,2.3s-.5,1.9-1.4,2.5-2.3.9-4,.9-1.6,0-3.5-.1c-4.4-.2-8.9-.3-13.4-.3h-17.1c-1.3,0-2.4-.3-3.2-.9-.8-.6-1.3-1.3-1.3-2.1s.2-1.5.6-3.1.6-2.7.8-3.3c1.7-6.7,2.9-12.5,3.8-17.4.3-1.6,1-5.9,2.3-12.9.6-3.1,1.1-5.4,1.3-7-1.7,0-3.1-.3-4-.9-.9-.5-1.4-1.2-1.4-2.2s.4-1.5,1.3-2.1c.8-.6,2-.9,3.4-.9s3.1,0,7.1.1c6.5.1,10.4.2,11.6.2,2.4,0,6.5,0,12.3-.2,3.7,0,6.2-.1,7.5-.1s3,.3,4,.9l-.3.3Z"/>
        <g id="Angel">
          <path class="cls-1" d="M327.5,99.8c45-13.8,68.8-36.6,72-68.6l.5-4.3-1.4,3.7c-8.5,20.9-28.2,35.3-63.8,46.3-37.2,11.6-50.6,18.7-63.7,33.8-4.1,4.7-4.2,4.3-.6-.9,10.2-15.5,28.2-27.3,60.7-39.8,46.7-17.8,65.9-36.2,67.4-64.6L398.9,0l-1.6,3.2c-9.7,19.6-23.5,27.8-61.6,36.6-51.7,12-70.9,24.5-90.5,59.6l-5.3,9.7-.9-2.8c-.8-2.1-1.9-3.6-4.2-5.2-3.8-2.8-4.2-3.4-4.2-5.8s-.5-2.8-.9-3.9c-.6-1.5-.8-2.1,0-2.1s2.8,2.4,2.8,3.7.2.7.8,0c1.4-1.7-.5-6.4-3.6-9.5-1.6-1.7-2.5-3-2-3,1.7,0,5.8,3,7.8,5.6s2,2.6,1.1.6c-1.1-2.6-3.1-4.9-5.8-6.5-1.9-1.1-2-1.3-1.1-2.8,3.4-5.8,4.1-9.9,2.5-16.3-1.7-6.5-4.1-8.4-9.1-6.9-3,.9-9.9-1.1-11.8-3.7-.9-1.3-.8-1.3,2.7-2.6,3.1-1.1,3.4-1.5,2.7-2.1-.6-.4-2.5-2.1-4.2-3.9-3.8-3.7-3.9-3.7-3.9-.7,0,15.3-11,26.2-24.1,24.1-5.8-.9-8.8,0-12.5,2.4-3.6,2.8-3.9,2.2-.8-1.5,3.8-4.3,7.2-5.8,15.7-6.4,10.2-.7,13.6-3,16.9-11l1.4-3.4-2.4,2.6c-3.9,4.5-7.2,5.8-16.8,6.5-4.5.4-9.7,1.1-11.3,1.7-1.7.6-3.1.9-3.3.9-.8-.9,6-5.2,11.8-7.3,3.8-1.3,7.5-3.2,8.3-3.9l1.6-1.5h-5.2c-7.1,0-7.5-.4-4.7-5,7.5-12.1,22.3-12.1,37.8,0l4.5,3.6-3.6-3.9c-17.4-19.2-45.2-14-53,9.9-6,18.5-6.6,22.2-4.5,29.3.8,2.6,1.3,6.2,1.3,9.2v4.9l-3.1,1.7c-1.7.9-3.9,2.8-4.9,4.3-.9,1.3-1.9,2.4-2,2.2,0,0-1.4-2.4-2.8-5-16.9-30.3-40-45.2-85.6-55.5C29,31.6,14,23.4,4.2,6,3.1,3.9,1.9,1.7,1.4.9.8-.2.6.2.9,3.9c2.4,29.7,19.1,46.2,65.2,64.6,38.4,15.3,50.2,23,62.9,41.1,4.2,6,3.8,6-1.4,0-11.9-13.6-24.5-20.6-57.1-31.2C27.4,64.5,12.5,54.4,1.9,32l-1.9-3.7.3,3.9c1.1,12.9,9.9,30.3,20.5,40.5,13,12.5,24.9,19.1,49.1,26.5,33.1,10.3,48.1,19.6,59.7,37.6,3.9,6,3.4,6-1.7-.6-12.5-15.7-26.5-23.2-56.4-30.3-34.2-8-49.4-16.6-60.2-33.8-2.8-4.7-3.3-4.1-1.7,2.2,5.8,26.2,27.9,44.7,64.9,54.6,19.6,5.2,27.1,8.6,36.7,16.1,5.2,3.9,14.6,14,15.8,16.8.3.7-1.1-.6-3.3-2.8-11.8-13.1-22.9-18.3-50-23.4-23.5-4.5-34.7-9.2-46.4-19.8-3.3-3-3.3-2.2,0,5,7.7,17.4,25.7,29,54.1,34.8,16.5,3.4,30.3,10.1,38.1,18.9l3,3.2-2.8-2.1c-9.3-7.3-19-10.7-35.3-12.1-18.2-1.9-25.7-3.9-34.3-9.9l-3.3-2.2.9,2.2c5.2,11.8,17.4,18.9,43.9,25.2,19.9,4.9,25.2,7.3,35,16.1,7.2,6.5,6.9,6,7.7,12.7,3.3,27.3,15.5,46.5,27.9,44.3,8.8-1.5,23.7-15.1,32.9-30.1,5-8,4.9-8,8.8-1.5,8.9,14.9,26.3,30.3,35.8,31.8,10.7,1.7,22.3-17,25.2-40.2,1.4-10.5,1.4-10.7,6-14.8,11-9.9,18.7-13.8,34.2-17.4,27.6-6.2,39.8-12.7,46.9-24.9,1.6-2.7,1-3.2-1.7-1.3-8.2,5.8-16.8,8.6-31,9.7-18.8,1.7-30.6,5.6-38.7,12.9-2.4,2.1-3.3,2.2-1.7.4,6.7-8.8,21-16.1,41.7-20.9,32.5-7.7,50-20.6,55.2-40.4l.5-1.9-2,2.1c-10.3,10.5-25.9,17-49.7,20.9-22.9,3.9-37.6,11-48.6,23.5-1.9,2.2-3.4,3.7-3.4,3.2,0-1.3,10.2-12.7,14.6-16.3,10.7-8.4,19.4-12.5,39.4-17.9,38.6-10.5,61.3-30.8,65.2-58.3.5-3.2.3-3-2.4,1.5-9.6,16.4-25.9,26-57.7,33.3-32.9,7.7-45.3,14-58.6,30.1-6.3,7.5-6.7,7.7-1.9.6,12.1-17.6,26-26.3,57.2-35.9l-.5-.4h-.3ZM237.8,121.8c2.8,2.8,4.9,6.5,5.3,10.3.3,2.2-.5,3.4-.9,1.5,0-.4-2.8-3.2-6-6-3.9-3.6-6-6.5-6.3-9.2-.3-2.4-.9-4.7-2-6.4-1.9-2.8-.9-3.6,2.4-1.7.8.4,2.2,2.6,3.1,4.9.9,2.3,2.8,5.2,4.2,6.5h.2ZM227.6,100.5c.8.7,2.5,2.2,4.1,3.2,3.3,2.1,5.3,5,4.9,7.1-.2.7-.5.6-.9-.4-.8-2.2-2.2-3.7-5-5.4-2.4-1.5-4.4-3.7-4.4-4.9s.6,0,1.3.6h0l.2-.2h-.2ZM228.7,67.3c-1.3.7-4.9,0-4.9-.9s.5-.6.9,0c.5,0,1.9.4,3,.4,1.6,0,1.7,0,.9.7v-.2h0ZM218,57.2c1.7-.6,3.9-1.5,4.9-2.1,1.6-.9,2.7-.9,3.4,0,1.1,1.5,3.1,6,2.8,6.4,0,0-1.7,0-3.6-.7s-5-1.3-7.1-1.9l-3.6-.9,3.1-.9h0v.2h0ZM201.2,65.4c1.6-1.5,3.8-4.1,4.7-5.8,2-3.7,1.9-3.7,3.9-1.5.9.9,3.9,3.2,6.7,5,9.1,5.6,10.2,19.1,3,37-7.2,17.8-20.2,22.6-29.8,10.8-3.3-4.1-6.3-13.5-6.3-20.4s11.4-19.6,17.7-25.2h0ZM173.4,79.4c.9-2.8,4.2-6.4,5.8-6.4s.6.4-.5,1.5c-.8.7-1.7,1.5-1.9,1.5-.9,0-3,6.5-3,9.3s-.3,3-.6,3c-.9,0-.8-6.2.2-9h0ZM165.6,108c2.2-1.3,4.7-3.4,5.3-4.5,1.4-2.2,1.1-3.2-.6-2.2-1.6.9-5.6,1.7-5.6.9s1.6-1.1,3.6-1.7c2.7-.9,4.2-2.1,6.3-4.3,3.4-4.1,3.6-4.1,3.6-.7,0,9.2-2.8,12.7-11.1,14.4-4.2.7-4.6,0-1.3-1.9,0,0-.2,0-.2,0ZM162.8,122.2c1.6-.7,6-3.2,9.9-5.6,7.1-4.3,8.5-4.5,6.6-.9-1.6,2.8-4.9,5.4-10.8,8.6-5.8,3-11.6,7.1-11.6,8s-.3.4-.5,0c-2.4-1.7,1.7-8.2,6.6-10.3h-.2v.2h0ZM176.6,154.7c-8.3-9.5-7.4-10.5,2.4-2.4,6.1,5,13.2,9.5,13.2,8.6s-1.3-2.4-2.8-4.7c-4.5-6.7-3.6-7.1,3.9-1.1l6.6,5.2-1.7,2.6c-.9,1.5-2.2,3.7-2.7,5.4-.9,2.8-1.1,3-10.7,9.7-4.1,2.8-4.7,3-5.2,1.9s-2.5-3.6-4.7-6.2c-3.8-4.5-6-8.2-3.1-5.4,10.8,11,13,11,3.6,0-3.6-4.1-6.6-7.8-6.6-8.2,0-.9,1.1-1.1,1.3,0,.5,1.3,11.1,10.3,11.8,9.7.5-.4-2-3.6-5.8-7.8-6.9-7.8-10.2-13.6-4.4-8,3.6,3.6,9.9,9,10.3,9,1.3,0-.3-2.4-5.5-8.2h.2,0ZM105.8,75.3c-8.9-5.2-15.5-8.2-40.5-17.2-21.3-7.7-34-14.8-43.6-23.9-1.9-1.9-1.1-2.1,1.3,0,1.3.9,4.4,2.8,7.1,3.9,6,2.8,14,5.6,34.5,11.6,36.7,10.7,52.5,19.2,66.5,36.1,10.2,12.3,20.7,31.8,19.8,36.8-.3,1.7-.5,5.6-.5,9,0,5.8,0,6-.9,3.7-11.4-31.6-23-47.5-43.6-59.6h0v-.4h0ZM140.3,203.5c-4.7,9.5-3.9-18.3.9-33.6,1.1-3.6,8.2-17.2,8.9-17.2s3.6,7.3,3.9,10.5l.5,3.7,1.4-3.6c1.1-2.6,1.4-4.3,1.1-6.4-.2-1.5-.5-4.1-.8-5.6-.6-4.7,1.7-9.7,5.8-13.3,4.1-3.4,4.5-3.4,5.2.7.3,2.1.3,3.9,0,5.8-.6,2.4-.6,4.9,0,15.7,0,1.5.6,3.4,1.1,3.9.5.7.9,2.2.9,3.4,0,2.4,1.7,5.6,6.1,10.3,4.1,4.5,4.1,3.9-1.1,8-2.9,2.2-5.3,3.1-7.1,2.6-9.4-3.2-21.2,3.4-26.8,15.1h0l-.2-.2.2.2ZM149.3,230.6c-5.3-10.5-1.3-30.1,7.5-35.5,3.1-1.9,7.7-3.2,7.7-2.1s-1.1,1.1-2.5,1.9c-9.6,5.8-15.4,22.4-11.9,34.2,1.1,4.1.8,4.7-.8,1.3h0v.2h0ZM242,229.8c-2.7,9.7-7.8,9.7-18.5,0-19.6-17.8-22.7-29.3-10.3-39.1,2.6-2,5.7-1.8,9.4.6,17.1,11.2,23.5,23.7,19.4,38.5h0ZM252.5,220.7c-.3,4.5-3,12.3-4.1,12.3s-.5-.4,0-1.5c4.5-10.1-.9-28.2-11.3-36.6-2.4-2.1-2.7-2.6-1.1-3,1.9-.4,5,.7,7.5,2.6,5.3,4.3,9.7,16.8,8.9,26.2h0ZM259.9,202.4c-.8,4.1-1.1,4.3-2.7.9-3.4-7.5-14.9-14.2-22.4-13.1-4.5.6-14.7-6.2-12.1-8,2.8-2.1,8-11,7.8-13.3-.2-1.5,0-3.4.8-5,.6-1.5.9-3.2.8-3.9-.3-.9-.5-.6-.8,1.3s-1.9,4.3-6.3,9.3c-6.9,8.2-7.4,9.9-.6,2.4,2.5-2.8,4.9-5,5-4.9.9,1.1-1.1,4.7-6.1,10.3-5.8,6.7-7.4,7.8-13.6,10.7-3.4,1.5-4.1,2.2-10.3,11.6-19.3,28.8-31.2,39.6-38.3,35.3-5-3-6.3-17.6-2.2-25.6,2.8-5.8,21.6-23.4,32.3-30.3,4.5-3,4.7-3.2,6.9-8.2,3-7.1,5.3-10.8,9.7-14.9,2-1.9,4.1-4.3,4.5-5.2.8-1.9.8-1.7.9,1.5,0,2.8-.2,3.6-1.6,4.5-2.5,2.1-1.7,2.6,1.6,1.1,3.1-1.3,5.2-3,10-8,3.9-4.1,6.3-5.4,6.7-4.1.5,1.5-.9,3.6-6.7,9.9-2.5,2.8-5,5.8-5.3,6.7-1.3,2.8,1.9,0,8.2-7.5,6.3-7.5,7.5-7.8,6-3.4-.3,1.1-3.4,5.4-6.7,9.7-5.6,7.3-6.9,9-5.6,9s3.1-3.2,6.4-7.1c7.7-9.3,8.6-12.1,5.5-16.8l-1.7-2.4-2.4,1.1c-1.3.6-4.4,3-7.1,5.2-5.6,4.7-5.5,4.7-5.5,1.9,0-5.2-1.9-5.8-5.6-1.7-1.4,1.5-3.9,3.9-5.6,5.2l-3,2.4-1.1-1.9c-4.7-7.7-14.6-11.8-14.6-6s-.3,3.2-5.3-1.1c-1.9-1.5-4.4-3.4-5.5-3.9-1.7-1.1-1.9-1.5-2.2-5.6-.2-2.8-.6-4.9-1.3-5.8-1.3-1.7-1.4-3-.3-3s4.1,3,8.2,6.5c10.5,9.3,14.4,11.6,19.6,11.6s8.3-1.7,8.3-3.4.9-2.4,2-4.1c1.6-2.2,1.7-2.8.8-2.4-6.6,3.4-8.5,3.7-13.2,2.6-10-2.6-7.4-15.9,3.1-16.1,2,0,13.8-9.9,16.9-14.2,2.5-3.6,3.3-4.1,3.3-2.2,0,6.5,5.3,14,16.3,22.8,23.4,18.9,30.3,37.9,24.6,68.9l-.6.6h.1ZM252.2,126.7c-4.7,11.2-5.6,12.1-5.8,6.4,0-1.5-.5-3.7-.8-5-.9-3-.8-3.4,5.8-16.6,18-35.7,33.6-47.3,83.4-61.8,20.9-6.2,33.6-10.8,39.5-14.6,4.5-2.8,4.2-2.8,4.2-2.2s-2.5,2.4-5.6,5.2c-9.4,8-20.5,13.8-38.1,20-24.1,8.4-34.3,12.9-43.7,18.7-17.6,11-28.4,24.9-39,50.1h.2v-.2Z"/>
        </g>
        <g id="Layer_3-2">
          <g>
            <path class="cls-1" d="M186.9,347c-2-1.9-3-4.5-3-8s1-6.9,3-10.1c-.6.6-1.2.7-1.8.7-1,0-1.4-.7-1.4-2.1s0-1.7.6-2.2c.4-.6.8-1.1,1.4-1.7,1.2-1.1,2.8-1.9,4.7-2.6s4.1-1.1,6.5-1.1c4.1,0,7.3,1.1,9.5,3.4,2.2,2.2,3.2,5.4,3.2,9.5s-.6,6-2,8.6c-1.2,2.6-3.2,4.5-5.3,6s-4.9,2.2-7.9,2.2-5.9-.9-7.9-2.8h.4v.2ZM201.1,343.6c1.6-.7,2.8-1.9,3.7-3.4s1.4-3.6,1.4-5.8-.4-3.9-1.4-5.2c-.8-1.3-2-2.4-3.3-3s-3-.9-4.5-.9-3.7.4-5.7,1.3c-1,1.5-1.8,3-2.4,4.7s-1,3.4-1,5.2c0,2.8.8,4.9,2.4,6.2,1.6,1.5,3.5,2.1,5.9,2.1s3.3-.4,4.7-1.1h.2Z"/>
            <path class="cls-1" d="M214.7,348.9c-.4-.4-.8-1.3-.8-2.4s.2-3,.8-6.2c.6-3.4.8-6.4.8-9.2s0-3.7-.4-5h-1.2v-.6c0-.6,0-1.3.2-1.9s.4-1.1.6-1.5c.6-.7,1.4-1.1,2.4-1.3,1.4,0,3-.2,5.1-.4h10.2c.4,0,.8,0,1,.4,0,.2.2.6.2.9,0,.7-.4,1.7-1,2.4-.4.6-.8.7-1.2.9s-1,.2-1.6.2c-1.2,0-3-.2-5.3-.2h-4.5c0,1.7-.4,4.1-.8,7.5,3-.2,6.3-.4,10-.4s1,0,1.2.2c.2,0,.4.4.4.9s-.4,1.7-1,2.4c-.6.9-1.2,1.3-2,1.3h-9.5c0,1.5-.2,2.8-.2,3.7s0,2.1.4,2.8.6,1.5,1.2,1.9c.4.4.6.7.6,1.3s-.4,1.3-1.2,1.9-1.8.7-3,.7-1.4-.2-1.8-.6h.2l.2.3Z"/>
          </g>
        </g>
      </g>
    </g>
  </g>
</svg>